<?xml version="1.0" encoding="UTF-8" standalone="no"?>
<!-- Created with Inkscape (http://www.inkscape.org/) -->

<svg
   xmlns:dc="http://purl.org/dc/elements/1.1/"
   xmlns:cc="http://creativecommons.org/ns#"
   xmlns:rdf="http://www.w3.org/1999/02/22-rdf-syntax-ns#"
   xmlns:svg="http://www.w3.org/2000/svg"
   xmlns="http://www.w3.org/2000/svg"
   xmlns:sodipodi="http://sodipodi.sourceforge.net/DTD/sodipodi-0.dtd"
   xmlns:inkscape="http://www.inkscape.org/namespaces/inkscape"
   height="12.429067mm"
   width="110.26325mm"
   viewBox="0 0 390.69656 44.04"
   id="svg2"
   version="1.1"
   inkscape:version="0.91 r13725"
   sodipodi:docname="logo.svg">
  <defs
     id="defs8" />
  <sodipodi:namedview
     pagecolor="#ffffff"
     bordercolor="#666666"
     borderopacity="1"
     objecttolerance="10"
     gridtolerance="10"
     guidetolerance="10"
     inkscape:pageopacity="0"
     inkscape:pageshadow="2"
     inkscape:window-width="1920"
     inkscape:window-height="1053"
     id="namedview6"
     showgrid="false"
     fit-margin-top="0"
     fit-margin-left="0"
     fit-margin-right="0"
     fit-margin-bottom="0"
     inkscape:zoom="1.7940591"
     inkscape:cx="127.5534"
     inkscape:cy="-45.705399"
     inkscape:window-x="0"
     inkscape:window-y="27"
     inkscape:window-maximized="1"
     inkscape:current-layer="svg2" />
  <metadata
     id="metadata4">
    <rdf:RDF>
      <cc:Work
         rdf:about="">
        <dc:format>image/svg+xml</dc:format>
        <dc:type
           rdf:resource="http://purl.org/dc/dcmitype/StillImage" />
        <dc:title></dc:title>
      </cc:Work>
    </rdf:RDF>
  </metadata>
  <text
     xml:space="preserve"
     style="font-style:normal;font-variant:normal;font-weight:normal;font-stretch:normal;font-size:40px;line-height:125%;font-family:Stencilia-A;-inkscape-font-specification:Stencilia-A;letter-spacing:0px;word-spacing:0px;fill:#000000;fill-opacity:1;stroke:none;stroke-width:1px;stroke-linecap:butt;stroke-linejoin:miter;stroke-opacity:1"
     x="54.92474"
     y="-339.29312"
     id="text3195"
     sodipodi:linespacing="125%"><tspan
       sodipodi:role="line"
       id="tspan3197"
       x="54.92474"
       y="-339.29312">Wordclock</tspan></text>
  <g
     style="font-style:normal;font-weight:normal;font-size:17.5px;line-height:125%;font-family:sans-serif;letter-spacing:0px;word-spacing:0px;fill:#777777;fill-opacity:1;stroke:none;stroke-width:1px;stroke-linecap:butt;stroke-linejoin:miter;stroke-opacity:1"
     id="text3218">
    <path
       d="m 53.28,1.0800018 -9.3,0 -3.96,19.3800002 4.02,16.8 9.24,-36.1800002 z m -11.88,42.0000002 -10.26,-42.0000002 -9,0 -3.24,20.0400002 4.2,16.08 3.6,-21.9 6.12,27.78 8.58,0 z m -20.94,0 -11.04,-42.0000002 -9.419999988079071,0 11.819999988079072,42.0000002 8.64,0 z"
       style="font-style:normal;font-variant:normal;font-weight:normal;font-stretch:normal;font-size:60px;font-family:Stencilia-A;-inkscape-font-specification:Stencilia-A;fill:#777777;fill-opacity:1"
       id="path3223" />
    <path
       d="m 97.703438,21.900002 q 0,-9.6 -4.44,-15.3000002 -4.44,-5.75999997 -14.04,-6.5999999689453 l 0,8.0399999689453 q 3,0.3 4.68,1.62 1.74,1.2600002 2.58,3.2400002 0.9,1.98 1.08,4.44 0.24,2.46 0.24,5.1 0,2.76 -0.3,4.98 -0.3,2.22 -1.2,3.96 -0.9,1.68 -2.58,2.82 -1.68,1.14 -4.5,1.68 l 0,7.98 1.08,0 q 4.5,0 7.74,-1.86 3.3,-1.92 5.4,-4.98 2.16,-3.12 3.18,-7.02 1.08,-3.96 1.08,-8.1 z m -23.04,13.92 q -2.88,-0.6 -4.56,-1.8 -1.68,-1.2 -2.58,-2.94 -0.9,-1.8 -1.2,-4.08 -0.24,-2.34 -0.24,-5.1 0,-2.52 0.3,-4.86 0.3,-2.34 1.2,-4.2 0.96,-1.92 2.64,-3.1800002 1.68,-1.32 4.44,-1.62 l 0,-0.06 0,-7.9799999689453 q -4.68,0.1199999989453 -8.16,1.8599999689453 -3.48,1.74 -5.76,4.68 -2.28,2.94 -3.42,6.9000002 -1.14,3.96 -1.14,8.46 0,3.78 0.78,7.38 0.84,3.54 2.58,6.48 1.74,2.94 4.5,5.04 2.76,2.04 6.66,2.76 0.96,0.18 1.92,0.18 0.96,0.06 1.98,0.06 l 0.06,-7.98 z"
       style="font-style:normal;font-variant:normal;font-weight:normal;font-stretch:normal;font-size:60px;font-family:Stencilia-A;-inkscape-font-specification:Stencilia-A;fill:#777777;fill-opacity:1"
       id="path3225" />
    <path
       d="m 139.51031,43.080002 q -1.02,-1.68 -1.74,-3.3 -0.66,-1.68 -1.02,-3.66 -0.3,-1.56 -0.54,-3.48 -0.24,-1.92 -0.78,-3.78 -0.48,-1.86 -1.44,-3.36 -0.96,-1.5 -2.7,-2.22 -0.3,-0.12 -0.6,-0.24 -0.3,-0.12 -0.6,-0.24 1.74,0 3.12,-0.9 1.38,-0.96 2.34,-2.4 1.02,-1.44 1.5,-3.12 0.54,-1.74 0.54,-3.3 0,-3.2400002 -0.78,-5.4000002 -0.78,-2.16 -2.1,-3.48 -1.32,-1.38 -3.18,-1.98 -1.86,-0.66 -3.96,-0.9 -2.1,-0.3 -4.44,-0.24 -2.34,0 -4.68,-0.06 l 0,7.98 0.24,0 q 1.08,0 2.16,-0.06 1.14,-0.06 2.28,-0.06 1.26,0 2.22,0.18 1.02,0.12 1.68,0.6 0.66,0.4800002 0.96,1.5000002 0.36,0.96 0.36,2.64 0,2.1 -0.3,3.36 -0.24,1.2 -0.96,1.86 -0.66,0.66 -1.8,0.9 -1.08,0.18 -2.76,0.18 -1.02,0 -2.04,0 -0.96,-0.06 -1.98,-0.06 l -0.12,7.56 q 0.78,0 1.08,0 0.36,0 0.54,0 0.24,0 0.54,0.06 0.3,0.06 1.08,0.12 2.1,0.24 3.18,1.14 1.08,0.84 1.56,2.1 0.48,1.26 0.6,2.82 0.18,1.56 0.48,3.18 0.3,1.62 0.84,3.12 0.54,1.5 1.26,2.94 l 9.96,0 z m -25.62,0 0,-42.0600002 -9.42,0 0,42.0600002 9.42,0 z"
       style="font-style:normal;font-variant:normal;font-weight:normal;font-stretch:normal;font-size:60px;font-family:Stencilia-A;-inkscape-font-specification:Stencilia-A;fill:#777777;fill-opacity:1"
       id="path3227" />
    <path
       d="m 181.19719,21.900002 q 0,-3.72 -0.96,-7.02 -0.9,-3.36 -2.76,-6.0000002 -1.8,-2.64 -4.62,-4.5 -2.82,-1.92 -6.6,-2.76 -0.84,-0.18 -1.2,-0.3 -0.3,-0.12 -0.6,-0.18 -0.24,-0.06 -0.6,-0.06 -0.36,-0.06 -1.2,-0.06 l -3.06,0 -0.06,0 0,7.92 q 0.6,0 0.72,0.06 0.12,0 0.12,0 0,0 0.12,0.06 0.12,0 0.72,0.06 2.94,0.18 4.86,1.2000002 1.92,1.02 3,2.7 1.14,1.68 1.56,3.96 0.48,2.28 0.48,4.92 0,3.3 -0.06,5.82 -0.06,2.52 -0.84,4.26 -0.78,1.68 -2.64,2.52 -1.8,0.84 -5.34,0.84 -0.66,0 -1.38,0 -0.66,-0.06 -1.32,-0.06 l 0,7.8 q 4.08,-0.06 7.02,-0.3 3,-0.3 5.28,-1.44 2.34,-1.2 4.14,-3.54 1.8,-2.4 3.54,-6.66 0.9,-2.22 1.26,-4.56 0.42,-2.34 0.42,-4.68 z m -26.22,21.18 0,-42.0000002 -9.36,0 0,42.0000002 9.36,0 z"
       style="font-style:normal;font-variant:normal;font-weight:normal;font-stretch:normal;font-size:60px;font-family:Stencilia-A;-inkscape-font-specification:Stencilia-A;fill:#777777;fill-opacity:1"
       id="path3229" />
    <path
       d="m 225.18188,13.920002 q -1.38,-7.0200002 -5.4,-10.0800002 -4.02,-3.05999997 -10.74,-3.41999997 l 0,7.73999997 q 3,0.3 4.38,1.9200002 1.44,1.56 2.22,4.56 l 9.54,-0.72 z m 0.66,15.18 -9.96,-0.66 q -0.42,3.48 -1.92,5.4 -1.5,1.92 -4.92,2.28 l 0.06,0 0,7.92 q 3.72,-0.48 6.54,-1.38 2.82,-0.9 4.8,-2.58 2.04,-1.74 3.36,-4.38 1.32,-2.64 2.04,-6.6 z m -20.64,14.88 0,-7.92 q -2.7,-0.06 -4.44,-1.32 -1.74,-1.32 -2.76,-3.3 -0.96,-1.98 -1.32,-4.38 -0.36,-2.4 -0.36,-4.74 0,-2.4 0.24,-4.86 0.3,-2.52 1.26,-4.5 0.96,-2.04 2.64,-3.3600002 1.74,-1.32 4.62,-1.44 l 0.06,-0.06 0,-7.73999997 q -4.74,0.12 -8.34,1.79999997 -3.54,1.68 -5.94,4.56 -2.34,2.88 -3.54,6.8400002 -1.2,3.9 -1.2,8.52 0,4.56 1.2,8.52 1.26,3.96 3.66,6.9 2.4,2.94 5.94,4.68 3.6,1.74 8.28,1.8 z"
       style="font-style:normal;font-variant:normal;font-weight:normal;font-stretch:normal;font-size:60px;font-family:Stencilia-A;-inkscape-font-specification:Stencilia-A;fill:#777777;fill-opacity:1"
       id="path3231" />
    <path
       d="m 240.49875,43.080002 0,-42.0600002 -9.54,0 0,42.0600002 9.54,0 z m 19.86,0 0,-7.86 -15.42,0 0,7.86 15.42,0 z"
       style="font-style:normal;font-variant:normal;font-weight:normal;font-stretch:normal;font-size:60px;font-family:Stencilia-A;-inkscape-font-specification:Stencilia-A;fill:#777777;fill-opacity:1"
       id="path3233" />
    <path
       d="m 303.25031,21.900002 q 0,-9.6 -4.44,-15.3000002 -4.44,-5.75999997 -14.04,-6.5999999689453 l 0,8.0399999689453 q 3,0.3 4.68,1.62 1.74,1.2600002 2.58,3.2400002 0.9,1.98 1.08,4.44 0.24,2.46 0.24,5.1 0,2.76 -0.3,4.98 -0.3,2.22 -1.2,3.96 -0.9,1.68 -2.58,2.82 -1.68,1.14 -4.5,1.68 l 0,7.98 1.08,0 q 4.5,0 7.74,-1.86 3.3,-1.92 5.4,-4.98 2.16,-3.12 3.18,-7.02 1.08,-3.96 1.08,-8.1 z m -23.04,13.92 q -2.88,-0.6 -4.56,-1.8 -1.68,-1.2 -2.58,-2.94 -0.9,-1.8 -1.2,-4.08 -0.24,-2.34 -0.24,-5.1 0,-2.52 0.3,-4.86 0.3,-2.34 1.2,-4.2 0.96,-1.92 2.64,-3.1800002 1.68,-1.32 4.44,-1.62 l 0,-0.06 0,-7.9799999689453 q -4.68,0.1199999989453 -8.16,1.8599999689453 -3.48,1.74 -5.76,4.68 -2.28,2.94 -3.42,6.9000002 -1.14,3.96 -1.14,8.46 0,3.78 0.78,7.38 0.84,3.54 2.58,6.48 1.74,2.94 4.5,5.04 2.76,2.04 6.66,2.76 0.96,0.18 1.92,0.18 0.96,0.06 1.98,0.06 l 0.06,-7.98 z"
       style="font-style:normal;font-variant:normal;font-weight:normal;font-stretch:normal;font-size:60px;font-family:Stencilia-A;-inkscape-font-specification:Stencilia-A;fill:#777777;fill-opacity:1"
       id="path3235" />
    <path
       d="m 348.34594,13.920002 q -1.38,-7.0200002 -5.4,-10.0800002 -4.02,-3.05999997 -10.74,-3.41999997 l 0,7.73999997 q 3,0.3 4.38,1.9200002 1.44,1.56 2.22,4.56 l 9.54,-0.72 z m 0.66,15.18 -9.96,-0.66 q -0.42,3.48 -1.92,5.4 -1.5,1.92 -4.92,2.28 l 0.06,0 0,7.92 q 3.72,-0.48 6.54,-1.38 2.82,-0.9 4.8,-2.58 2.04,-1.74 3.36,-4.38 1.32,-2.64 2.04,-6.6 z m -20.64,14.88 0,-7.92 q -2.7,-0.06 -4.44,-1.32 -1.74,-1.32 -2.76,-3.3 -0.96,-1.98 -1.32,-4.38 -0.36,-2.4 -0.36,-4.74 0,-2.4 0.24,-4.86 0.3,-2.52 1.26,-4.5 0.96,-2.04 2.64,-3.3600002 1.74,-1.32 4.62,-1.44 l 0.06,-0.06 0,-7.73999997 q -4.74,0.12 -8.34,1.79999997 -3.54,1.68 -5.94,4.56 -2.34,2.88 -3.54,6.8400002 -1.2,3.9 -1.2,8.52 0,4.56 1.2,8.52 1.26,3.96 3.66,6.9 2.4,2.94 5.94,4.68 3.6,1.74 8.28,1.8 z"
       style="font-style:normal;font-variant:normal;font-weight:normal;font-stretch:normal;font-size:60px;font-family:Stencilia-A;-inkscape-font-specification:Stencilia-A;fill:#777777;fill-opacity:1"
       id="path3237" />
    <path
       d="m 390.69656,43.080002 -17.1,-22.92 16.14,-19.1400002 -12.18,0 -10.26,14.2800002 0,10.44 11.7,17.34 11.7,0 z m -27.96,0 0,-42.0000002 -9.42,0 0,42.0000002 9.42,0 z"
       style="font-style:normal;font-variant:normal;font-weight:normal;font-stretch:normal;font-size:60px;font-family:Stencilia-A;-inkscape-font-specification:Stencilia-A;fill:#777777;fill-opacity:1"
       id="path3239" />
  </g>
</svg>
